<svg xmlns="http://www.w3.org/2000/svg" width="100%" height="100%" viewBox="0 0 35 36" fill="none">
<path stroke="#d9d9d9" fill="none" stroke-dasharray="2 2" stroke-linecap="round" d="M2.345 33.788C12.896 35.196 34 36.442 34 30.168c0-1.61-4.924-4.827-24.62-4.827"/>
<path stroke="#d9d9d9" fill="none" stroke-dasharray="2 2" stroke-linecap="round" d="M10.43 25.294c-5.252.598-6.875-4.78 0-4.78h20.053"/>
<mask id="a" fill="#fff"><path fill-rule="evenodd" d="M16.338 13.7a9.208 9.208 0 0 0 1.248-4.65C17.586 4.052 13.65 0 8.793 0S0 4.052 0 9.05c0 1.71.46 3.308 1.26 4.671l7.533 13.43 7.545-13.45Z" clip-rule="evenodd"/>
</mask>
<path fill="current" fill-rule="evenodd" d="M16.338 13.7a9.208 9.208 0 0 0 1.248-4.65C17.586 4.052 13.65 0 8.793 0S0 4.052 0 9.05c0 1.71.46 3.308 1.26 4.671l7.533 13.43 7.545-13.45Z" clip-rule="evenodd"/>
<path fill="#666" d="m16.338 13.7-.864-.503-.004.007-.004.007.872.49Zm-15.078.021.872-.489-.004-.008-.005-.008-.863.505Zm7.533 13.43-.872.489.872 1.555.873-1.555-.873-.49Zm7.793-18.1c0 1.519-.407 2.936-1.111 4.146l1.727 1.007a10.209 10.209 0 0 0 1.384-5.154h-2ZM8.793 1c4.277 0 7.793 3.577 7.793 8.05h2C18.586 3.527 14.23-1 8.793-1v2ZM1 9.05C1 4.577 4.516 1 8.793 1v-2C3.358-1-1 3.527-1 9.05h2Zm1.123 4.165A8.207 8.207 0 0 1 1 9.05h-2c0 1.89.51 3.663 1.398 5.177l1.725-1.011Zm7.543 13.446L2.132 13.232l-1.744.979L7.921 27.64l1.745-.979Zm5.8-13.45-7.545 13.45 1.745.979 7.544-13.45-1.744-.979Z" mask="url(#a)"/>
<path fill="#fff" stroke="#666" d="M12.397 9.05c0 2.07-1.627 3.723-3.604 3.723-1.976 0-3.603-1.653-3.603-3.723s1.626-3.723 3.603-3.723c1.977 0 3.604 1.653 3.604 3.723Z"/>
</svg>